<svg xmlns="http://www.w3.org/2000/svg" width="307.974" height="56.91" viewBox="0 0 307.974 56.91">
      <g transform="translate(60.988 30)">
        <path d="M287.411,348.8V360.26a5.252,5.252,0,1,0,10.5,0V348.8h3.239v11.4c0,5.1-3.389,8.46-8.489,8.46-5.16,0-8.58-3.36-8.58-8.46V348.8Z" transform="translate(-284.081 -346.25)" fill="#0d3960"/>
        <path d="M318.97,359.27v9.03h-3.3v-8.76a3.443,3.443,0,0,0-3.629-3.78,3.583,3.583,0,0,0-3.75,3.78v8.76h-3.3v-15h2.88v1.95a6.248,6.248,0,0,1,11.1,4.02Z" transform="translate(-284.081 -346.25)" fill="#0d3960"/>
        <path d="M322.211,348.5a2.265,2.265,0,1,1,2.25,2.28A2.266,2.266,0,0,1,322.211,348.5Zm.63,4.8h3.24v15h-3.24Z" transform="translate(-284.081 -346.25)" fill="#0d3960"/>
        <path d="M344.17,353.54l-6.75,14.76h-2.04L328.6,353.54l.15-.24h3.18l4.469,10.92,4.68-10.92h2.94Z" transform="translate(-284.081 -346.25)" fill="#0d3960"/>
        <path d="M348.1,361.61a4.694,4.694,0,0,0,4.92,4.44,6.3,6.3,0,0,0,4.68-1.98h.27l1.65,1.5v.24a8.668,8.668,0,0,1-6.69,2.85c-4.35,0-8.07-2.97-8.07-7.83a7.592,7.592,0,0,1,7.74-7.89,7.449,7.449,0,0,1,5.339,2.07,7.661,7.661,0,0,1,2.221,5.55,5.051,5.051,0,0,1-.091,1.05Zm.03-2.25h8.789a4.505,4.505,0,0,0-1.2-2.61,4.509,4.509,0,0,0-7.59,2.61Z" transform="translate(-284.081 -346.25)" fill="#0d3960"/>
        <path d="M372.67,353.66l-.81,2.4-.27.12a2.982,2.982,0,0,0-1.65-.36c-2.04,0-3.33,1.77-3.33,4.17v8.31h-3.27v-15h2.88v1.98a4.651,4.651,0,0,1,4.05-2.34,5.046,5.046,0,0,1,2.25.48Z" transform="translate(-284.081 -346.25)" fill="#0d3960"/>
        <path d="M373.24,365.93v-.24l1.65-1.65h.27a5.433,5.433,0,0,0,4.17,2.01c1.529,0,2.579-.72,2.579-1.77,0-1.41-1.44-1.92-3.059-2.55-2.28-.84-4.71-1.77-4.71-4.5,0-2.58,2.13-4.319,5.46-4.319A6.737,6.737,0,0,1,385,355.4v.27l-1.65,1.59h-.24a4.746,4.746,0,0,0-3.569-1.77c-1.32,0-2.221.63-2.221,1.56,0,1.08,1.261,1.53,3,2.25,2.55,1.05,4.77,2.01,4.77,5.01,0,2.61-2.31,4.38-5.7,4.38A7.716,7.716,0,0,1,373.24,365.93Z" transform="translate(-284.081 -346.25)" fill="#0d3960"/>
        <path d="M387.85,348.5a2.265,2.265,0,1,1,2.25,2.28A2.266,2.266,0,0,1,387.85,348.5Zm.629,4.8h3.241v15h-3.241Z" transform="translate(-284.081 -346.25)" fill="#0d3960"/>
        <path d="M405.369,367.28l-.09.27a5.269,5.269,0,0,1-3.3,1.11c-2.76,0-4.95-1.65-4.95-5.13v-7.68h-2.55V353.3h2.55v-4.53l3.03-.359.24.18V353.3h4.56v2.55H400.3v7.47c0,1.8.84,2.52,2.13,2.52a2.6,2.6,0,0,0,1.71-.69l.27.12Z" transform="translate(-284.081 -346.25)" fill="#0d3960"/>
        <path d="M421.539,353.54l-6.959,15.9c-1.261,2.849-2.641,3.72-4.711,3.72a4.719,4.719,0,0,1-2.46-.6l-.119-.27.719-2.04.27-.089a3.036,3.036,0,0,0,1.471.39c.779,0,1.349-.241,1.949-1.59l.75-1.62-6.119-13.8.179-.24h3.241l4.349,10.68,4.32-10.68h2.94Z" transform="translate(-284.081 -346.25)" fill="#0d3960"/>
        <path d="M429.4,348.5a2.265,2.265,0,1,1,2.25,2.28A2.266,2.266,0,0,1,429.4,348.5Zm.63,4.8h3.24v15h-3.24Z" transform="translate(-284.081 -346.25)" fill="#0d3960"/>
        <path d="M451.629,359.27v9.03h-3.3v-8.76a3.445,3.445,0,0,0-3.63-3.78,3.582,3.582,0,0,0-3.75,3.78v8.76h-3.3v-15h2.88v1.95a6.248,6.248,0,0,1,11.1,4.02Z" transform="translate(-284.081 -346.25)" fill="#0d3960"/>
        <path d="M459.609,358.55a10.032,10.032,0,0,1,10.319-10.11,10.227,10.227,0,0,1,8.1,3.84v.27l-2.1,1.68h-.24a7.192,7.192,0,0,0-5.73-2.79,7.111,7.111,0,0,0,0,14.22,7.192,7.192,0,0,0,5.73-2.79h.24l2.1,1.68v.27a10.2,10.2,0,0,1-8.13,3.84A10.025,10.025,0,0,1,459.609,358.55Z" transform="translate(-284.081 -346.25)" fill="#0d3960"/>
        <path d="M493.359,359.15v9.15h-2.82v-1.71a7.033,7.033,0,0,1-4.98,2.07c-3.51,0-5.88-1.92-5.88-4.83,0-3.03,2.58-5.07,6.42-5.07a10.918,10.918,0,0,1,4.2.93v-.99c0-1.89-1.62-3.18-3.9-3.18a7.113,7.113,0,0,0-4.23,1.5h-.24l-1.2-1.83v-.24a9.872,9.872,0,0,1,5.97-2.01C490.659,352.94,493.359,354.95,493.359,359.15Zm-3.03,3.84-.031-.18v-.75a9.053,9.053,0,0,0-3.869-1.02c-2.16,0-3.57,1.11-3.57,2.73,0,1.5,1.32,2.49,3.3,2.49C488.258,366.26,490.269,364.94,490.329,362.99Z" transform="translate(-284.081 -346.25)" fill="#0d3960"/>
        <path d="M496.928,348.5a2.265,2.265,0,1,1,2.25,2.28A2.267,2.267,0,0,1,496.928,348.5Zm.63,4.8h3.24v15h-3.24Z" transform="translate(-284.081 -346.25)" fill="#0d3960"/>
        <path d="M514.507,353.66l-.809,2.4-.271.12a2.976,2.976,0,0,0-1.649-.36c-2.04,0-3.33,1.77-3.33,4.17v8.31h-3.27v-15h2.88v1.98a4.65,4.65,0,0,1,4.05-2.34,5.049,5.049,0,0,1,2.25.48Z" transform="translate(-284.081 -346.25)" fill="#0d3960"/>
        <path d="M514.838,360.8a8.119,8.119,0,1,1,8.1,7.86A7.795,7.795,0,0,1,514.838,360.8Zm12.959,0a4.847,4.847,0,1,0-4.859,5.01A4.767,4.767,0,0,0,527.8,360.8Z" transform="translate(-284.081 -346.25)" fill="#0d3960"/>
      </g>
      <g transform="translate(61.079)">
        <path d="M293.8,338.3h-3.33V321.62h-6.3V318.8H300.1v2.82h-6.3Z" transform="translate(-284.172 -316.25)" fill="#0d3960"/>
        <path d="M316.572,329.269v9.03H313.3v-8.76a3.459,3.459,0,0,0-3.63-3.779,3.59,3.59,0,0,0-3.78,3.779v8.76h-3.24V318.2l3-.36.24.18v6.78a5.946,5.946,0,0,1,4.5-1.86C314.142,322.94,316.572,325.52,316.572,329.269Z" transform="translate(-284.172 -316.25)" fill="#0d3960"/>
        <path d="M322.631,331.609a4.694,4.694,0,0,0,4.92,4.44,6.3,6.3,0,0,0,4.68-1.98h.27l1.65,1.5v.24a8.668,8.668,0,0,1-6.69,2.85c-4.35,0-8.069-2.97-8.069-7.83a7.591,7.591,0,0,1,7.739-7.889,7.453,7.453,0,0,1,5.34,2.07,7.662,7.662,0,0,1,2.22,5.549,5.06,5.06,0,0,1-.09,1.05Zm.03-2.249h8.79a4.512,4.512,0,0,0-1.2-2.61,4.509,4.509,0,0,0-7.59,2.61Z" transform="translate(-284.172 -316.25)" fill="#0d3960"/>
        <path d="M362.351,338.029l-.151.27h-3.329l-1.741-3.96h-9.509l-1.77,3.96h-3.21l-.15-.27,9.06-19.229h1.8Zm-6.3-6.209-3.63-8.28-3.69,8.28Z" transform="translate(-284.172 -316.25)" fill="#0d3960"/>
        <path d="M388.63,329.269v9.03h-3.27v-8.76c0-2.279-1.26-3.779-3.42-3.779a3.575,3.575,0,0,0-3.72,3.779v8.76h-3.3v-8.76c0-2.279-1.259-3.779-3.42-3.779a3.551,3.551,0,0,0-3.689,3.779v8.76h-3.3v-15h2.88v1.98a5.908,5.908,0,0,1,4.89-2.34,5.57,5.57,0,0,1,5.01,2.61,6.313,6.313,0,0,1,5.309-2.61C386.32,322.94,388.63,325.52,388.63,329.269Z" transform="translate(-284.172 -316.25)" fill="#0d3960"/>
        <path d="M394.69,331.609a4.694,4.694,0,0,0,4.92,4.44,6.3,6.3,0,0,0,4.68-1.98h.27l1.65,1.5v.24a8.668,8.668,0,0,1-6.69,2.85c-4.35,0-8.069-2.97-8.069-7.83a7.591,7.591,0,0,1,7.739-7.889,7.453,7.453,0,0,1,5.34,2.07,7.662,7.662,0,0,1,2.22,5.549,5.06,5.06,0,0,1-.09,1.05Zm.03-2.249h8.79a4.512,4.512,0,0,0-1.2-2.61,4.509,4.509,0,0,0-7.59,2.61Z" transform="translate(-284.172 -316.25)" fill="#0d3960"/>
        <path d="M419.26,323.66l-.81,2.4-.27.12a2.982,2.982,0,0,0-1.65-.36c-2.04,0-3.33,1.77-3.33,4.17V338.3h-3.27v-15h2.88v1.98a4.651,4.651,0,0,1,4.05-2.34,5.042,5.042,0,0,1,2.249.48Z" transform="translate(-284.172 -316.25)" fill="#0d3960"/>
        <path d="M421.419,318.5a2.265,2.265,0,1,1,2.25,2.28A2.266,2.266,0,0,1,421.419,318.5Zm.63,4.8h3.241v15h-3.241Z" transform="translate(-284.172 -316.25)" fill="#0d3960"/>
        <path d="M428.62,330.8a7.769,7.769,0,0,1,8.069-7.86,7.9,7.9,0,0,1,6.12,2.639v.241l-1.86,1.65h-.27a5.389,5.389,0,0,0-3.929-1.68,5.011,5.011,0,0,0,.089,10.019,4.9,4.9,0,0,0,3.84-1.68h.27l1.86,1.65v.24a7.9,7.9,0,0,1-6.12,2.64A7.769,7.769,0,0,1,428.62,330.8Z" transform="translate(-284.172 -316.25)" fill="#0d3960"/>
        <path d="M458.108,329.15V338.3h-2.819v-1.71a7.033,7.033,0,0,1-4.98,2.07c-3.51,0-5.88-1.92-5.88-4.83,0-3.029,2.58-5.069,6.42-5.069a10.946,10.946,0,0,1,4.2.929V328.7c0-1.891-1.62-3.18-3.9-3.18a7.113,7.113,0,0,0-4.23,1.5h-.24l-1.2-1.83v-.24a9.872,9.872,0,0,1,5.97-2.01C455.409,322.94,458.108,324.95,458.108,329.15Zm-3.029,3.84-.03-.181v-.75a9.077,9.077,0,0,0-3.87-1.02c-2.16,0-3.57,1.11-3.57,2.73,0,1.5,1.32,2.49,3.3,2.49C453.009,336.259,455.019,334.939,455.079,332.99Z" transform="translate(-284.172 -316.25)" fill="#0d3960"/>
        <path d="M476.228,329.269v9.03h-3.3v-8.76a3.443,3.443,0,0,0-3.63-3.779,3.581,3.581,0,0,0-3.749,3.779v8.76h-3.3v-15h2.879v1.95a6.249,6.249,0,0,1,11.1,4.019Z" transform="translate(-284.172 -316.25)" fill="#0d3960"/>
      </g>
      <g transform="translate(0 2.468)">
        <path d="M239.456,322.135v1.9l4.429,1.44v-1.626H259.08v9.624l3.578,4.924a.471.471,0,0,0,.858-.27h0V318.719H237.569a.472.472,0,0,0-.335.8h0l1.945,1.945h0a.937.937,0,0,1,.276.667Z" transform="translate(-223.093 -318.718)" fill="#0d3960"/>
        <path d="M243.885,346.117V334.583a.943.943,0,0,0-.655-.9l-3.774-1.227v11.534a.944.944,0,0,0,.655.9Z" transform="translate(-223.093 -318.718)" fill="#0d3960"/>
        <path d="M226.949,347.148l1.81.588,2.738-3.768-1.546-.5,4.7-14.451,9.153,2.974,5.788-1.881a.475.475,0,0,0,.311-.3.47.47,0,0,0-.3-.594h0l-18.461-6h0l-8.019,24.677h0a.472.472,0,0,0,.662.566h0l2.451-1.249h0a.946.946,0,0,1,.72-.057Z" transform="translate(-223.093 -318.718)" fill="#0d3960"/>
        <path d="M251.127,350.346l-10.97-3.564a.944.944,0,0,0-1.057.345l-2.333,3.211,10.97,3.565a.944.944,0,0,0,1.056-.346Z" transform="translate(-223.093 -318.718)" fill="#0d3960"/>
        <path d="M246.873,366.773l1.119-1.541-2.738-3.768-.955,1.315-12.293-8.931,5.657-7.786v-6.087a.481.481,0,0,0-.194-.39.472.472,0,0,0-.659.105h0l-11.409,15.7h0l20.99,15.252h0a.472.472,0,0,0,.659-.105.467.467,0,0,0,.084-.349h0l-.43-2.716h0a.939.939,0,0,1,.168-.7Z" transform="translate(-223.093 -318.718)" fill="#0d3960"/>
        <path d="M257.386,344.766l-6.78,9.332a.944.944,0,0,0,0,1.112l2.333,3.211,6.78-9.332a.944.944,0,0,0,0-1.112Z" transform="translate(-223.093 -318.718)" fill="#0d3960"/>
        <path d="M271.694,353.888l-1.119-1.541-4.43,1.44.956,1.315-12.293,8.931-5.657-7.786-5.789-1.881a.472.472,0,0,0-.535.723h0l11.41,15.7h0l20.992-15.25h0a.472.472,0,0,0-.2-.847h0l-2.716-.43h0a.941.941,0,0,1-.616-.378Z" transform="translate(-223.093 -318.718)" fill="#0d3960"/>
        <path d="M254.014,337.089l6.779,9.331a.944.944,0,0,0,1.058.342l3.775-1.226-6.78-9.332a.945.945,0,0,0-1.058-.342Z" transform="translate(-223.093 -318.718)" fill="#0d3960"/>
        <path d="M267.11,326.3l-1.811.588v4.658l1.546-.5,4.7,14.452-9.153,2.974-3.577,4.924a.471.471,0,0,0,.522.732h0l18.461-6h0l-8.017-24.677h0a.472.472,0,0,0-.868-.07h0l-1.248,2.451h0a.941.941,0,0,1-.549.468Z" transform="translate(-223.093 -318.718)" fill="#0d3960"/>
        <path d="M245.67,337.924l10.969-3.565a.941.941,0,0,0,.652-.9V329.49l-10.97,3.564a.944.944,0,0,0-.652.9Z" transform="translate(-223.093 -318.718)" fill="#0d3960"/>
      </g>
</svg>
